<svg xmlns="http://www.w3.org/2000/svg" viewBox="0 0 100 100"><rect width="100" height="100" rx="18" fill="#f5f5f5"/><polygon transform="translate(10 10) scale(.8)" points="50.00,0.00 51.37,43.13 57.27,32.45 53.89,44.18 71.21,28.79 55.82,46.11 67.55,42.73 56.87,48.63 100.00,50.00 56.87,51.37 67.55,57.27 55.82,53.89 71.21,71.21 53.89,55.82 57.27,67.55 51.37,56.87 50.00,100.00 48.63,56.87 42.73,67.55 46.11,55.82 28.79,71.21 44.18,53.89 32.45,57.27 43.13,51.37 0.00,50.00 43.13,48.63 32.45,42.73 44.18,46.11 28.79,28.79 46.11,44.18 42.73,32.45 48.63,43.13" fill="#b0341e"/></svg>
